# xmcd CD database file
#
# Track frame offsets:
#	150
#	16963
#	33447
#	51131
#	68058
#	97060
#	332550
#
# Disc length: 4440 seconds
#
# Revision: 0
# Processed by: cddbd v1.5PL3 Copyright (c) Steve Scherf et al.
# Submitted via: CDex 1.51
#
DISCID=57115607
DTITLE=NO PLAN - 本望でございます　〜芸人たちの詩PartII〜
DYEAR=2004
DGENRE=J ポップ
TTITLE0=本望でございます　〜芸人たちの詩PartII〜
TTITLE1=ＣＤ版内Ｐノーカットクイズ
TTITLE2=○（マル）あげよう
TTITLE3=本望でございます　〜芸人たちの詩PartII〜　(カラオケ）
TTITLE4=○（マル）あげよう　(カラオケ）
TTITLE5=データ
TTITLE6=データ
EXTD=YEAR: 2004
EXTT0=
EXTT1=
EXTT2=
EXTT3=
EXTT4=
EXTT5=
EXTT6=
PLAYORDER=
